<?xml version="1.0" encoding="UTF-8" standalone="no"?>
<svg
   xmlns:dc="http://purl.org/dc/elements/1.1/"
   xmlns:cc="http://creativecommons.org/ns#"
   xmlns:rdf="http://www.w3.org/1999/02/22-rdf-syntax-ns#"
   xmlns:svg="http://www.w3.org/2000/svg"
   xmlns="http://www.w3.org/2000/svg"
   xmlns:sodipodi="http://sodipodi.sourceforge.net/DTD/sodipodi-0.dtd"
   xmlns:inkscape="http://www.inkscape.org/namespaces/inkscape"
   enable-background="new 0 0 580 580"
   height="580"
   viewBox="0 0 580 580"
   width="580"
   version="1.1"
   id="svg3725"
   sodipodi:docname="airport_select.svg"
   inkscape:version="0.92.4 (5da689c313, 2019-01-14)">
  <metadata
     id="metadata3731">
    <rdf:RDF>
      <cc:Work
         rdf:about="">
        <dc:format>image/svg+xml</dc:format>
        <dc:type
           rdf:resource="http://purl.org/dc/dcmitype/StillImage" />
        <dc:title></dc:title>
      </cc:Work>
    </rdf:RDF>
  </metadata>
  <defs
     id="defs3729" />
  <sodipodi:namedview
     pagecolor="#ffffff"
     bordercolor="#666666"
     borderopacity="1"
     objecttolerance="10"
     gridtolerance="10"
     guidetolerance="10"
     inkscape:pageopacity="0"
     inkscape:pageshadow="2"
     inkscape:window-width="1920"
     inkscape:window-height="1005"
     id="namedview3727"
     showgrid="false"
     inkscape:zoom="1.4"
     inkscape:cx="290"
     inkscape:cy="290"
     inkscape:window-x="-9"
     inkscape:window-y="-9"
     inkscape:window-maximized="1"
     inkscape:current-layer="svg3725" />
  <path
     d="m527.052 330.506l-195.068-117.241v-128.359c.012-12.336-4.618-23.317-13.037-30.918-7.453-6.73-17.338-10.436-27.832-10.436-19.553 0-40.359 14.144-40.405 40.381v129.371l-192.322 117.267c-5.955 3.631-9.588 10.102-9.588 17.076v52.717c0 6.415 3.078 12.441 8.275 16.202 5.197 3.762 11.882 4.8 17.977 2.796l177.575-58.437v73.387l-39.824 31.439c-3.604 2.845-5.706 7.183-5.706 11.773v41.694c0 4.768 2.267 9.252 6.106 12.079 2.609 1.921 5.732 2.921 8.895 2.921 1.492 0 2.993-.223 4.452-.676l66.475-20.663 66.475 20.663c4.551 1.413 9.507.581 13.347-2.245 3.839-2.827 6.105-7.312 6.105-12.079v-41.694c0-4.617-2.127-8.978-5.766-11.82l-40.243-31.44v-73.338l177.554 58.436c2.043.672 4.152 1.002 6.251 1.002 4.158 0 8.271-1.298 11.726-3.798 5.198-3.761 8.275-9.787 8.275-16.202v-52.717c0-7.019-3.681-13.525-9.697-17.141z"
     fill="param(fill)"
     fill-opacity="param(fill-opacity)"
     stroke="param(outline)"
     stroke-opacity="param(outline-opacity)"
     stroke-width="param(outline-width)"
     id="path3723" />
  <path
     style="stroke-width:0.71428573;fill:#ff7f2a"
     d="m 217.63213,533.17242 c -3.19416,-1.02485 -6.79632,-4.14602 -8.53158,-7.39237 -1.54591,-2.89211 -1.6082,-3.76916 -1.82459,-25.69085 -0.25124,-25.45154 0.13365,-28.44228 4.15972,-32.32333 1.21128,-1.16766 10.94628,-9.0449 21.63333,-17.50498 L 252.5,434.87891 252.685,397.93946 C 252.81819,371.34521 252.64903,361 252.08098,361 c -0.43396,0 -36.83864,11.86724 -80.89928,26.37166 -44.06065,14.50441 -84.288843,27.74345 -89.395986,29.42008 -10.855113,3.56365 -15.210584,3.86372 -20.714285,1.4271 -4.292824,-1.90053 -6.981538,-4.34074 -9.52801,-8.64741 l -1.900562,-3.21429 -0.207299,-31.39082 -0.207299,-31.39083 2.237725,-4.54546 c 1.462687,-2.97114 3.196726,-5.24016 5.0066,-6.55123 1.522882,-1.10316 45.836696,-28.26496 98.475146,-60.35953 l 95.70626,-58.35377 0.23163,-68.34704 c 0.21207,-62.576071 0.33712,-68.703988 1.481,-72.574564 6.02821,-20.397853 26.57961,-32.440519 47.71572,-27.960362 11.10734,2.354388 22.28197,10.822452 26.92313,20.40218 4.58721,9.468359 4.42032,6.443142 4.45109,80.685786 l 0.028,67.5285 97.64455,58.57143 c 58.91827,35.34173 98.98356,59.80576 101.02075,61.68366 2.31032,2.12969 3.8434,4.36094 4.85607,7.06754 1.42513,3.80901 1.47221,5.08087 1.27269,34.38776 -0.20286,29.79769 -0.23998,30.4938 -1.78018,33.3728 -2.52747,4.72448 -5.00858,7.21187 -9.27648,9.29996 -7.78506,3.80887 -2.65315,5.19574 -101.77677,-27.50452 C 374.46502,374.22039 334.04249,361 333.61732,361 c -0.54694,0 -0.71893,10.80626 -0.58803,36.94792 l 0.185,36.94792 21.01572,16.44494 c 17.12188,13.39796 21.32383,17.02822 22.67858,19.59299 1.64483,3.11397 1.66284,3.40624 1.66284,26.98723 0,25.94934 -0.12923,26.92223 -4.14504,31.20479 -2.46385,2.6275 -6.93073,4.6956 -10.1854,4.71567 -1.3996,0.009 -17.99213,-4.78412 -36.87231,-10.65055 l -34.32759,-10.66624 -33.12769,10.33539 c -32.70742,10.20428 -38.33799,11.57756 -42.28127,10.31236 z"
     id="path3733"
     inkscape:connector-curvature="0" />
</svg>
