<?xml version="1.0" encoding="UTF-8" standalone="no"?>
<svg
   xmlns:dc="http://purl.org/dc/elements/1.1/"
   xmlns:cc="http://creativecommons.org/ns#"
   xmlns:rdf="http://www.w3.org/1999/02/22-rdf-syntax-ns#"
   xmlns:svg="http://www.w3.org/2000/svg"
   xmlns="http://www.w3.org/2000/svg"
   xmlns:sodipodi="http://sodipodi.sourceforge.net/DTD/sodipodi-0.dtd"
   xmlns:inkscape="http://www.inkscape.org/namespaces/inkscape"
   enable-background="new -235.433 -235.433 579.997 579.997"
   height="579.997"
   viewBox="-235.433 -235.433 579.997 579.997"
   width="579.997"
   version="1.1"
   id="svg26"
   sodipodi:docname="skull_select.svg"
   inkscape:version="0.92.4 (5da689c313, 2019-01-14)">
  <metadata
     id="metadata32">
    <rdf:RDF>
      <cc:Work
         rdf:about="">
        <dc:format>image/svg+xml</dc:format>
        <dc:type
           rdf:resource="http://purl.org/dc/dcmitype/StillImage" />
        <dc:title></dc:title>
      </cc:Work>
    </rdf:RDF>
  </metadata>
  <defs
     id="defs30" />
  <sodipodi:namedview
     pagecolor="#ffffff"
     bordercolor="#666666"
     borderopacity="1"
     objecttolerance="10"
     gridtolerance="10"
     guidetolerance="10"
     inkscape:pageopacity="0"
     inkscape:pageshadow="2"
     inkscape:window-width="1920"
     inkscape:window-height="1005"
     id="namedview28"
     showgrid="false"
     inkscape:zoom="1.4000072"
     inkscape:cx="289.9985"
     inkscape:cy="289.9985"
     inkscape:window-x="-9"
     inkscape:window-y="-9"
     inkscape:window-maximized="1"
     inkscape:current-layer="svg26" />
  <path
     d="m271.478 213.915c-7.806 1.643-13.659 4.762-20.979 2.961-4.306-2.423-16.14-14.813-109.26-91.667 4.608-3.242 13.871-9.661 15.224-10.997 5.893-5.843 16.064-9.581 22.268-15.449 24.027-22.729 17.648-62.884 17.648-93.532 0-4.225-2.755-18.431-5.849-21.566-7.455-7.57-14.861-14.786-23.111-21.381 74.664-61.943 79.088-67.779 83.08-70.021 7.319-1.805 13.173 1.316 20.979 2.958 7.481 1.641 25.69-6.077 27.318-13.799 1.461-2.299-1.952-15.44-11.711-23.16-13.168-1.97-14.629 6.406-26.335 0-8.617-7.393-8.46-20.204-16.104-28.089-4.55-4.764-19.351-7.555-24.388-1.972-6.67 5.258 2.765 20.863 1.466 30.061 0 0-6.469 22.827-81.006 86.257-7.1-3.831-15.209-6.884-30.575-10.457-7.718-2.425-92.238-3.168-109.921 0-15.909 3.7-24.041 6.841-31.325 10.866-74.99-63.739-81.486-86.666-81.486-86.666-1.301-9.198 8.131-24.803 1.463-30.061-5.039-5.583-19.837-2.792-24.389 1.972-7.644 7.885-7.479 20.696-16.099 28.089-11.707 6.406-13.17-1.97-26.34 0-9.756 7.72-13.172 20.86-11.709 23.16 1.628 7.722 19.839 15.44 27.318 13.799 7.804-1.643 13.66-4.764 20.976-2.958 3.95 2.218 10.905 10.08 83.7 70.519-8.002 6.46-15.228 13.502-22.499 20.883-3.091 3.135-5.846 17.341-5.846 21.566 0 30.648-6.377 70.803 17.648 93.532 6.202 5.868 16.372 9.606 22.27 15.449 1.289 1.274 9.775 7.175 14.555 10.529-93.641 77.276-105.511 89.707-109.828 92.135-7.316 1.801-13.172-1.318-20.976-2.961-7.479-1.643-25.69 6.08-27.318 13.802-1.463 2.297 1.953 15.435 11.709 23.157 13.17 1.968 14.633-6.404 26.34 0 8.62 7.393 8.455 20.206 16.099 28.086 4.552 4.767 19.35 7.556 24.389 1.978 6.667-5.263-2.764-20.865-1.463-30.063 0 0 7.168-25.301 93.398-96.653.423 4.21.703 8.916 1.071 14.423.571 8.543 4.673 22.95 8.822 30.417 2.009 3.62 6.792 8.647 6.665 11.155-.26 5.105 11.353 13.389 15.022 15.996 13.619 9.696 25.541 11.828 42.794 11.852 17.257-.023 29.178-2.155 42.797-11.852 3.669-2.607 15.277-10.891 15.021-15.996-.128-2.508 4.653-7.535 6.66-11.155 4.151-7.467 8.254-21.874 8.824-30.417.341-5.101.608-9.511.98-13.479 85.161 70.638 92.259 95.71 92.259 95.71 1.299 9.198-8.136 24.801-1.466 30.063 5.037 5.578 19.838 2.789 24.388-1.978 7.644-7.88 7.486-20.693 16.104-28.086 11.706-6.404 13.167 1.968 26.335 0 9.759-7.723 13.172-20.86 11.711-23.157-1.628-7.723-19.837-15.446-27.318-13.803zm-242.97-170.287c-4.655 11.834-22.771 19.773-37.072 17.742-31.879-4.537-47.436-24.695-42.926-37.451 5.243-14.84 16.035-39.423 31.219-39.423 33.169-1.971 64.288 19.716 48.779 59.132zm52.118 0c-15.508-39.416 15.613-61.103 48.78-59.132 15.184 0 25.976 24.583 31.219 39.421 4.516 12.759-11.047 32.916-42.926 37.453-14.298 2.031-32.419-5.91-37.073-17.742z"
     fill="param(fill) #000"
     fill-opacity="255"
     stroke="param(outline) #FFF"
     stroke-opacity="255"
     stroke-width="param(outline-width) 0"
     id="path22" />
  <path
     d="m55.462 238.065c-.095 0-.185-.002-.279-.002s-.184.002-.279.002z"
     fill="param(fill) #000"
     fill-opacity="255"
     stroke="param(outline) #FFF"
     stroke-opacity="255"
     stroke-width="param(outline-width) 0"
     id="path24" />
  <path
     style="fill:#ff6600;stroke-width:0.71428204"
     d="m 107.85659,518.18652 c -7.918482,-2.41742 -9.955857,-5.04313 -16.796336,-21.64664 -2.32083,-5.63323 -6.08439,-10.32674 -9.387236,-11.70675 -3.04912,-1.27401 -8.285295,-1.23243 -12.679753,0.10067 -1.928499,0.58503 -5.342901,1.06369 -7.587561,1.06369 -3.895654,0 -4.210305,-0.14006 -6.920951,-3.08077 -5.294532,-5.74388 -9.504203,-15.32795 -8.496365,-19.3435 1.156109,-4.6063 8.992226,-10.35567 17.533785,-12.86456 5.29032,-1.55391 8.163275,-1.43924 16.189542,0.64616 3.780042,0.98213 8.420131,1.7857 10.311307,1.7857 4.124939,0 4.79281,-0.46985 22.833538,-16.0636 15.73903,-13.60424 42.72976,-36.35096 70.22607,-59.18376 l 21.29775,-17.68555 -1.655,-1.24929 c -0.91024,-0.68711 -3.74941,-2.7218 -6.30926,-4.52153 -2.55984,-1.79974 -6.03207,-4.42337 -7.71605,-5.83029 -1.68398,-1.40693 -6.70202,-4.81675 -11.15121,-7.57737 -15.16508,-9.40961 -22.1032,-19.50644 -26.28039,-38.24498 -1.1935,-5.35396 -1.48959,-9.89105 -1.77128,-27.14271 -0.42184,-25.83525 0.44437,-40.6219 2.86037,-48.8273 1.6687,-5.66735 2.04317,-6.25831 7.37832,-11.64349 3.09123,-3.12022 8.43722,-8.13482 11.87999,-11.14357 3.44276,-3.00875 6.17489,-5.70614 6.07139,-5.99419 -0.1035,-0.28805 -9.41116,-8.23451 -20.68371,-17.65878 -11.27254,-9.42428 -29.87552,-25.17895 -41.33996,-35.01038 -24.390339,-20.91615 -22.542792,-20.01932 -34.942507,-16.96157 -4.199493,1.03558 -9.083041,1.88288 -10.852328,1.88288 -8.204316,0 -21.029554,-7.03672 -23.44246,-12.86199 -1.655723,-3.99727 2.104155,-13.66633 7.844621,-20.173551 2.810648,-3.186068 3.208165,-3.39284 6.522686,-3.39284 1.941297,0 6.094943,0.66496 9.230324,1.477689 5.378562,1.39419 5.919105,1.414196 9.565906,0.354042 5.014073,-1.45763 8.789667,-5.645912 11.835169,-13.128802 4.045536,-9.940005 6.408242,-14.229715 9.253119,-16.799892 6.32231,-5.711826 19.30448,-6.442771 23.84606,-1.342623 2.14061,2.403884 2.20963,6.31929 0.25493,14.462062 -2.9618,12.338137 -2.99453,13.284553 -0.62911,18.191793 4.55605,9.451872 18.26382,25.854522 37.48967,44.859972 11.04054,10.91398 39.12576,36.44483 41.65872,37.86984 0.67068,0.37731 3.26683,-0.36732 7.25937,-2.08216 11.09439,-4.76513 23.699,-7.9519 35.23314,-8.90784 12.50645,-1.03653 76.38792,-1.08558 89.21081,-0.0685 12.16535,0.96493 26.89693,4.77427 36.69624,9.48905 2.32494,1.11861 4.61165,1.78885 5.12229,1.50138 2.4345,-1.37057 30.7677,-27.15584 41.5371,-37.80177 19.01898,-18.80096 32.50999,-34.90572 37.46749,-44.72647 2.46773,-4.888549 2.44358,-5.61764 -0.60693,-18.325302 -1.9547,-8.142772 -1.88568,-12.058178 0.25493,-14.462062 4.54158,-5.100148 17.52375,-4.369204 23.84606,1.342623 2.84487,2.570177 5.20758,6.859887 9.25312,16.799892 3.0455,7.48289 6.82109,11.671172 11.83517,13.128802 3.6468,1.060154 4.18734,1.040148 9.5659,-0.354042 3.13538,-0.812722 7.28903,-1.477682 9.23033,-1.477682 3.31452,0 3.71204,0.206772 6.52269,3.39284 5.74046,6.507221 9.50034,16.176281 7.84461,20.173551 -2.4129,5.82527 -15.23814,12.86199 -23.44245,12.86199 -1.7693,0 -6.65284,-0.8473 -10.85233,-1.88288 -10.87201,-2.68102 -12.55645,-2.32366 -20.12775,4.27019 -17.6395,15.36224 -38.66266,33.15647 -76.29069,64.57324 -0.1951,0.16289 0.92989,1.43676 2.49998,2.83083 1.57009,1.39406 6.93073,6.35293 11.91252,11.0197 10.00395,9.37136 10.75763,10.62337 13.09553,21.75434 1.84268,8.77318 1.94409,58.00531 0.13816,67.07656 -4.10378,20.61348 -11.70392,32.21983 -27.01386,41.25351 -3.77586,2.22796 -8.27584,5.22996 -9.99995,6.6711 -1.7241,1.44115 -6.26865,4.85827 -10.09899,7.59359 -3.83034,2.73533 -6.96425,5.08509 -6.96425,5.22169 0,0.13661 7.31021,6.29377 16.2449,13.68259 22.29428,18.43694 59.38545,49.67707 74.46892,62.72165 18.03025,15.59302 18.70712,16.06937 22.83354,16.06937 1.89117,0 6.53126,-0.80357 10.3113,-1.7857 8.02627,-2.0854 10.89922,-2.20007 16.18955,-0.64616 8.54155,2.50889 16.37767,8.25826 17.53378,12.86456 1.00784,4.01555 -3.20183,13.59962 -8.49637,19.3435 -2.71064,2.94071 -3.02529,3.08077 -6.92095,3.08077 -2.24466,0 -5.65906,-0.47866 -7.58756,-1.06369 -4.39445,-1.3331 -9.63063,-1.37468 -12.67975,-0.10067 -3.30845,1.38236 -7.07118,6.08048 -9.37593,11.70675 -6.34619,15.49206 -8.406,18.34845 -15.02193,20.83126 -3.4361,1.28949 -5.39545,1.55893 -9.88372,1.35913 -5.42132,-0.24133 -5.67495,-0.33315 -8.03567,-2.90914 -3.0047,-3.27869 -3.09963,-5.26663 -0.7249,-15.18085 2.77031,-11.56579 2.86021,-12.71592 1.27422,-16.30131 -4.7681,-10.77908 -22.06229,-31.08451 -45.2824,-53.16694 -15.23077,-14.48451 -46.02346,-41.46248 -46.5585,-40.79063 -0.11365,0.14269 -0.57023,4.75942 -1.01464,10.25939 -1.27305,15.75523 -5.02101,27.72912 -11.96359,38.22101 -2.13487,3.2263 -3.88158,6.5991 -3.88158,7.49512 0,3.60644 -11.79646,13.98099 -22.27211,19.5875 -9.39765,5.02956 -19.89579,7.196 -34.87045,7.196 -18.67829,0 -30.53373,-3.32344 -42.85693,-12.01407 -8.67572,-6.11835 -14.99992,-12.94719 -14.99992,-16.19686 0,-0.62653 -1.61675,-3.53508 -3.59279,-6.46344 -6.59757,-9.77717 -10.74653,-23.42268 -12.00404,-39.4801 -0.37894,-4.83872 -0.85465,-8.96333 -1.05713,-9.16582 -0.45824,-0.45823 -14.38806,11.30395 -31.45371,26.55914 -31.00739,27.71787 -55.51866,54.87346 -61.274,67.88437 -1.62316,3.66939 -1.54001,4.76658 1.2409,16.37664 0.941,3.92855 1.71131,8.30482 1.71183,9.72505 7.1e-4,2.95008 -1.95649,5.84434 -5.02665,7.43199 -2.17306,1.12373 -10.36651,1.35918 -13.54376,0.3892 z M 240.17428,296.38116 c 7.40491,-1.56921 13.82479,-4.97346 18.79258,-9.96511 3.7849,-3.80307 4.5683,-5.08682 6.27009,-10.27486 2.76177,-8.41943 3.65164,-15.92879 2.65587,-22.41213 -2.38022,-15.49736 -13.65311,-26.94333 -31.54185,-32.02615 -6.87018,-1.95206 -20.6437,-2.71659 -25.32552,-1.40576 -7.32462,2.05077 -14.35112,10.03711 -21.04154,23.91588 -5.67315,11.7685 -7.43381,17.30979 -6.9087,21.74353 1.32213,11.16331 13.38313,22.40314 29.85556,27.82283 11.087,3.64781 18.82167,4.38647 27.24351,2.60177 z m 123.03813,-1.43349 c 19.09615,-5.53436 32.2735,-16.86728 33.70939,-28.99111 0.52511,-4.43374 -1.23555,-9.97503 -6.9087,-21.74353 -6.69042,-13.87877 -13.71692,-21.86511 -21.04154,-23.91588 -4.68182,-1.31083 -18.45534,-0.5463 -25.32552,1.40576 -18.0427,5.12656 -29.23894,16.59209 -31.57213,32.33149 -0.98956,6.67543 -0.16841,13.40339 2.70512,22.1642 1.68071,5.12413 2.47628,6.42449 6.25112,10.21745 10.22439,10.27348 25.50678,13.36444 42.18226,8.53162 z"
     id="path34"
     inkscape:connector-curvature="0"
     transform="translate(-235.433,-235.433)" />
</svg>
